<svg xmlns="http://www.w3.org/2000/svg" width="28.705" height="19" viewBox="0 0 28.705 19"><path id="email" fill="#fff" d="M19.716,13.54l7.357-6.392V19.859Zm-9.48,1.082,2.584,2.243a2.328,2.328,0,0,0,1.512.553h.036a2.341,2.341,0,0,0,1.518-.556l0,0,2.584-2.243,7.854,6.745H2.386ZM2.375,5.633H26.333L14.826,15.627a.732.732,0,0,1-.455.158h-.032a.73.73,0,0,1-.456-.159h0ZM1.633,7.147l7.356,6.392L1.633,19.854Zm25.836-2.92A2.2,2.2,0,0,0,26.486,4H2.224a2.237,2.237,0,0,0-1,.236l.013-.006A2.22,2.22,0,0,0,0,6.219V20.778A2.225,2.225,0,0,0,2.222,23h24.26a2.225,2.225,0,0,0,2.222-2.222V6.219a2.216,2.216,0,0,0-1.231-1.986l-.013-.006Z" transform="translate(0 -4)"/></svg>