<svg xmlns="http://www.w3.org/2000/svg" width="21.807" height="21.184" viewBox="0 0 21.807 21.184"><path id="Icon_ionic-logo-facebook" fill="#fff" d="M25.1,4.5H5.7A1.188,1.188,0,0,0,4.5,5.67V24.515a1.188,1.188,0,0,0,1.2,1.17h9.7V17.3H12.8V14.21H15.4V11.926c0-2.736,1.954-4.226,4.469-4.226,1.2,0,2.5.088,2.8.127v2.858h-2c-1.369,0-1.63.629-1.63,1.556V14.21H22.3L21.872,17.3H19.038v8.386H25.1a1.188,1.188,0,0,0,1.2-1.17V5.67A1.188,1.188,0,0,0,25.1,4.5Z" data-name="Icon ionic-logo-facebook" transform="translate(-4.5 -4.5)"/></svg>