<svg xmlns="http://www.w3.org/2000/svg" width="21.184" height="21.184" viewBox="0 0 21.184 21.184"><g id="Icon_ionic-logo-instagram" data-name="Icon ionic-logo-instagram" transform="translate(0 0)"><path id="Контур_37" fill="#fff" d="M19.506,6.265a4.426,4.426,0,0,1,4.413,4.413v8.827a4.426,4.426,0,0,1-4.413,4.413H10.679a4.426,4.426,0,0,1-4.413-4.413V10.679a4.426,4.426,0,0,1,4.413-4.413h8.827m0-1.765H10.679A6.2,6.2,0,0,0,4.5,10.679v8.827a6.2,6.2,0,0,0,6.179,6.179h8.827a6.2,6.2,0,0,0,6.179-6.179V10.679A6.2,6.2,0,0,0,19.506,4.5Z" data-name="Контур 37" transform="translate(-4.5 -4.5)"/><path id="Контур_38" fill="#fff" d="M24.949,11.648a1.324,1.324,0,1,1,1.324-1.324A1.321,1.321,0,0,1,24.949,11.648Z" data-name="Контур 38" transform="translate(-8.619 -5.469)"/><path id="Контур_39" fill="#fff" d="M16.546,13.015a3.531,3.531,0,1,1-3.531,3.531,3.534,3.534,0,0,1,3.531-3.531m0-1.765a5.3,5.3,0,1,0,5.3,5.3,5.3,5.3,0,0,0-5.3-5.3Z" data-name="Контур 39" transform="translate(-5.954 -5.954)"/></g></svg>