<svg xmlns="http://www.w3.org/2000/svg" width="24" height="25.48" viewBox="0 0 24 25.48"><g id="location" transform="translate(0 0.501)"><path id="Контур_49" fill="#fffbfb" d="M192.873,127.592a2.949,2.949,0,1,0,2.949,2.949A2.949,2.949,0,0,0,192.873,127.592Zm0,4.424a1.475,1.475,0,1,1,1.475-1.475A1.475,1.475,0,0,1,192.873,132.016Z" data-name="Контур 49" transform="translate(-181.172 -122.522)"/><path id="Контур_50" fill="#fff9f9" stroke="#fffbfb" stroke-width="1" d="M93.691,19.936A8.015,8.015,0,0,0,81.308,29.978l5.572,8.554a1.365,1.365,0,0,0,2.287,0l5.572-8.554A8.015,8.015,0,0,0,93.691,19.936ZM93.5,29.173l-5.48,8.413-5.48-8.413a6.54,6.54,0,1,1,10.96,0Z" data-name="Контур 50" transform="translate(-76.322 -17.589)"/><rect id="Прямоугольник_401" width="24" height="24" fill="rgba(0,0,0,0)" data-name="Прямоугольник 401" transform="translate(0 0.979)"/></g></svg>