<svg xmlns="http://www.w3.org/2000/svg" width="21.549" height="21.549" viewBox="0 0 21.549 21.549"><path id="Icon_awesome-twitter-square" fill="#fff" d="M19.24,2.25H2.309A2.309,2.309,0,0,0,0,4.559V21.49A2.309,2.309,0,0,0,2.309,23.8H19.24a2.309,2.309,0,0,0,2.309-2.309V4.559A2.309,2.309,0,0,0,19.24,2.25ZM16.888,9.888c.01.135.01.274.01.409a8.914,8.914,0,0,1-8.976,8.976,8.934,8.934,0,0,1-4.844-1.414,6.646,6.646,0,0,0,.76.038A6.325,6.325,0,0,0,7.754,16.55a3.159,3.159,0,0,1-2.949-2.189A3.4,3.4,0,0,0,6.229,14.3a3.155,3.155,0,0,1-2.525-3.1v-.038a3.153,3.153,0,0,0,1.424.4,3.148,3.148,0,0,1-1.4-2.626,3.115,3.115,0,0,1,.428-1.592,8.957,8.957,0,0,0,6.5,3.3,3.161,3.161,0,0,1,5.382-2.881,6.182,6.182,0,0,0,2-.76,3.146,3.146,0,0,1-1.385,1.736,6.278,6.278,0,0,0,1.818-.491A6.64,6.64,0,0,1,16.888,9.888Z" data-name="Icon awesome-twitter-square" transform="translate(0 -2.25)"/></svg>