<svg id="user-outlined" xmlns="http://www.w3.org/2000/svg" width="25" height="25" viewBox="0 0 25 25">
  <path id="Контур_1" data-name="Контур 1" d="M153.867,130.066a9.341,9.341,0,0,0-4.949-4.949l-.03-.012a6.132,6.132,0,1,0-7.182,0l-.03.012A9.3,9.3,0,0,0,136,133.484a.2.2,0,0,0,.2.2h1.484a.2.2,0,0,0,.2-.193,7.422,7.422,0,0,1,14.839,0,.2.2,0,0,0,.2.193H154.4a.2.2,0,0,0,.2-.2A9.217,9.217,0,0,0,153.867,130.066Zm-8.57-5.679a4.256,4.256,0,1,1,3.007-1.247A4.226,4.226,0,0,1,145.3,124.388Z" transform="translate(-132.627 -111.178)" fill="#fff"/>
  <rect id="Прямоугольник_4" data-name="Прямоугольник 4" width="25" height="25" transform="translate(0)" fill="rgba(0,0,0,0)"/>
</svg>
